<mxfile host="app.diagrams.net" modified="2023-11-29T12:58:30.237Z" agent="Mozilla/5.0 (X11; Linux x86_64) AppleWebKit/537.36 (KHTML, like Gecko) Chrome/119.0.0.0 Safari/537.36" etag="ep1tD28kUEsQLSOP6aqc" version="22.1.4" type="github">
  <diagram name="Page-1" id="RZmxLkSd9HDzIl610uK2">
    <mxGraphModel dx="986" dy="542" grid="1" gridSize="10" guides="1" tooltips="1" connect="1" arrows="1" fold="1" page="1" pageScale="1" pageWidth="827" pageHeight="1169" math="0" shadow="0">
      <root>
        <mxCell id="0" />
        <mxCell id="1" parent="0" />
        <mxCell id="phnj-av9lNXI67dqOcx1-1" value="&lt;b&gt;Orchestrator&lt;/b&gt;" style="rounded=0;whiteSpace=wrap;html=1;points=[[0,0,0,0,0],[0,0.25,0,0,0],[0,0.5,0,0,0],[0,0.75,0,0,0],[0,1,0,0,0],[0.14,1,0,0,0],[0.25,0,0,0,0],[0.29,1,0,0,0],[0.43,1,0,0,0],[0.5,0,0,0,0],[0.57,1,0,0,0],[0.71,1,0,0,0],[0.75,0,0,0,0],[0.86,1,0,0,0],[1,0,0,0,0],[1,0.25,0,0,0],[1,0.5,0,0,0],[1,0.75,0,0,0],[1,1,0,0,0]];" vertex="1" parent="1">
          <mxGeometry x="340" y="560" width="120" height="60" as="geometry" />
        </mxCell>
        <mxCell id="phnj-av9lNXI67dqOcx1-5" value="&lt;b&gt;Bridge&lt;/b&gt;" style="rounded=0;whiteSpace=wrap;html=1;points=[[0,0,0,0,0],[0,0.25,0,0,0],[0,0.5,0,0,0],[0,0.75,0,0,0],[0,1,0,0,0],[0.14,0,0,0,0],[0.25,1,0,0,0],[0.29,0,0,0,0],[0.43,0,0,0,0],[0.5,1,0,0,0],[0.57,0,0,0,0],[0.71,0,0,0,0],[0.75,1,0,0,0],[0.86,0,0,0,0],[1,0,0,0,0],[1,0.25,0,0,0],[1,0.5,0,0,0],[1,0.75,0,0,0],[1,1,0,0,0]];" vertex="1" parent="1">
          <mxGeometry x="340" y="680" width="120" height="60" as="geometry" />
        </mxCell>
        <mxCell id="phnj-av9lNXI67dqOcx1-6" value="" style="endArrow=classic;html=1;rounded=0;exitX=0.43;exitY=1;exitDx=0;exitDy=0;entryX=0.43;entryY=0;entryDx=0;entryDy=0;exitPerimeter=0;entryPerimeter=0;" edge="1" parent="1" source="phnj-av9lNXI67dqOcx1-1" target="phnj-av9lNXI67dqOcx1-5">
          <mxGeometry width="50" height="50" relative="1" as="geometry">
            <mxPoint x="360" y="740" as="sourcePoint" />
            <mxPoint x="410" y="690" as="targetPoint" />
          </mxGeometry>
        </mxCell>
        <mxCell id="phnj-av9lNXI67dqOcx1-8" value="" style="endArrow=classic;html=1;rounded=0;exitX=0.57;exitY=0;exitDx=0;exitDy=0;entryX=0.57;entryY=1;entryDx=0;entryDy=0;entryPerimeter=0;exitPerimeter=0;" edge="1" parent="1" source="phnj-av9lNXI67dqOcx1-5" target="phnj-av9lNXI67dqOcx1-1">
          <mxGeometry width="50" height="50" relative="1" as="geometry">
            <mxPoint x="440" y="710" as="sourcePoint" />
            <mxPoint x="440" y="640" as="targetPoint" />
          </mxGeometry>
        </mxCell>
        <mxCell id="phnj-av9lNXI67dqOcx1-10" value="&lt;b&gt;&lt;font style=&quot;font-size: 16px;&quot;&gt;UART&lt;/font&gt;&lt;/b&gt;" style="text;html=1;strokeColor=none;fillColor=none;align=center;verticalAlign=middle;whiteSpace=wrap;rounded=0;" vertex="1" parent="1">
          <mxGeometry x="420" y="640" width="40" height="20" as="geometry" />
        </mxCell>
        <mxCell id="phnj-av9lNXI67dqOcx1-14" value="" style="endArrow=none;html=1;rounded=0;" edge="1" parent="1">
          <mxGeometry width="50" height="50" relative="1" as="geometry">
            <mxPoint x="160" y="800" as="sourcePoint" />
            <mxPoint x="640" y="800" as="targetPoint" />
          </mxGeometry>
        </mxCell>
        <mxCell id="phnj-av9lNXI67dqOcx1-16" value="" style="endArrow=classic;startArrow=classic;html=1;rounded=0;entryX=0.5;entryY=1;entryDx=0;entryDy=0;entryPerimeter=0;" edge="1" parent="1" target="phnj-av9lNXI67dqOcx1-5">
          <mxGeometry width="50" height="50" relative="1" as="geometry">
            <mxPoint x="400" y="800" as="sourcePoint" />
            <mxPoint x="410" y="690" as="targetPoint" />
          </mxGeometry>
        </mxCell>
        <mxCell id="phnj-av9lNXI67dqOcx1-17" value="&lt;font style=&quot;font-size: 16px;&quot;&gt;&lt;b&gt;PlusBus&lt;/b&gt;&lt;/font&gt;" style="text;html=1;strokeColor=none;fillColor=none;align=center;verticalAlign=middle;whiteSpace=wrap;rounded=0;" vertex="1" parent="1">
          <mxGeometry x="529" y="753" width="70" height="40" as="geometry" />
        </mxCell>
        <mxCell id="phnj-av9lNXI67dqOcx1-19" value="" style="endArrow=none;html=1;rounded=0;" edge="1" parent="1">
          <mxGeometry width="50" height="50" relative="1" as="geometry">
            <mxPoint x="497" y="810" as="sourcePoint" />
            <mxPoint x="517" y="790" as="targetPoint" />
          </mxGeometry>
        </mxCell>
        <mxCell id="phnj-av9lNXI67dqOcx1-21" value="Node 0" style="swimlane;whiteSpace=wrap;html=1;" vertex="1" parent="1">
          <mxGeometry x="200" y="840" width="120" height="130" as="geometry" />
        </mxCell>
        <mxCell id="phnj-av9lNXI67dqOcx1-22" value="PlusBus&lt;br&gt;Module" style="rounded=0;whiteSpace=wrap;html=1;" vertex="1" parent="phnj-av9lNXI67dqOcx1-21">
          <mxGeometry x="10" y="40" width="100" height="30" as="geometry" />
        </mxCell>
        <mxCell id="phnj-av9lNXI67dqOcx1-23" value="Hash&lt;br&gt;Module" style="rounded=0;whiteSpace=wrap;html=1;" vertex="1" parent="phnj-av9lNXI67dqOcx1-21">
          <mxGeometry x="10" y="80" width="100" height="30" as="geometry" />
        </mxCell>
        <mxCell id="phnj-av9lNXI67dqOcx1-24" value="" style="endArrow=classic;startArrow=classic;html=1;rounded=0;exitX=0.75;exitY=0;exitDx=0;exitDy=0;" edge="1" parent="1" source="phnj-av9lNXI67dqOcx1-21">
          <mxGeometry width="50" height="50" relative="1" as="geometry">
            <mxPoint x="245" y="770" as="sourcePoint" />
            <mxPoint x="290" y="800" as="targetPoint" />
          </mxGeometry>
        </mxCell>
        <mxCell id="phnj-av9lNXI67dqOcx1-25" value="Node 1" style="swimlane;whiteSpace=wrap;html=1;" vertex="1" parent="1">
          <mxGeometry x="340" y="840" width="120" height="130" as="geometry" />
        </mxCell>
        <mxCell id="phnj-av9lNXI67dqOcx1-26" value="PlusBus&lt;br&gt;Module" style="rounded=0;whiteSpace=wrap;html=1;" vertex="1" parent="phnj-av9lNXI67dqOcx1-25">
          <mxGeometry x="10" y="40" width="100" height="30" as="geometry" />
        </mxCell>
        <mxCell id="phnj-av9lNXI67dqOcx1-27" value="Hash&lt;br&gt;Module" style="rounded=0;whiteSpace=wrap;html=1;" vertex="1" parent="phnj-av9lNXI67dqOcx1-25">
          <mxGeometry x="10" y="80" width="100" height="30" as="geometry" />
        </mxCell>
        <mxCell id="phnj-av9lNXI67dqOcx1-28" value="" style="endArrow=classic;startArrow=classic;html=1;rounded=0;exitX=0.75;exitY=0;exitDx=0;exitDy=0;" edge="1" parent="1" source="phnj-av9lNXI67dqOcx1-25">
          <mxGeometry width="50" height="50" relative="1" as="geometry">
            <mxPoint x="385" y="790" as="sourcePoint" />
            <mxPoint x="430" y="800" as="targetPoint" />
          </mxGeometry>
        </mxCell>
        <mxCell id="phnj-av9lNXI67dqOcx1-31" value="Node ..." style="swimlane;whiteSpace=wrap;html=1;" vertex="1" parent="1">
          <mxGeometry x="480" y="840" width="120" height="130" as="geometry" />
        </mxCell>
        <mxCell id="phnj-av9lNXI67dqOcx1-32" value="PlusBus&lt;br&gt;Module" style="rounded=0;whiteSpace=wrap;html=1;" vertex="1" parent="phnj-av9lNXI67dqOcx1-31">
          <mxGeometry x="10" y="40" width="100" height="30" as="geometry" />
        </mxCell>
        <mxCell id="phnj-av9lNXI67dqOcx1-33" value="Hash&lt;br&gt;Module" style="rounded=0;whiteSpace=wrap;html=1;" vertex="1" parent="phnj-av9lNXI67dqOcx1-31">
          <mxGeometry x="10" y="80" width="100" height="30" as="geometry" />
        </mxCell>
        <mxCell id="phnj-av9lNXI67dqOcx1-34" value="" style="endArrow=classic;startArrow=classic;html=1;rounded=0;exitX=0.75;exitY=0;exitDx=0;exitDy=0;" edge="1" parent="1" source="phnj-av9lNXI67dqOcx1-31">
          <mxGeometry width="50" height="50" relative="1" as="geometry">
            <mxPoint x="525" y="790" as="sourcePoint" />
            <mxPoint x="570" y="800" as="targetPoint" />
          </mxGeometry>
        </mxCell>
      </root>
    </mxGraphModel>
  </diagram>
</mxfile>
